HIERARCHY
ROOT Hips
{
	OFFSET 0.000000 95.729000 0.000000
	CHANNELS 6 Xposition Yposition Zposition Yrotation Xrotation Zrotation
	JOINT RightUpLeg
	{
		OFFSET -9.625000 -1.639000 0.000000
		CHANNELS 3 Yrotation Xrotation Zrotation
		JOINT RightLeg
		{
			OFFSET 0.000000 -41.481000 0.000000
			CHANNELS 3 Yrotation Xrotation Zrotation
			JOINT RightFoot
			{
				OFFSET 0.000000 -43.120000 0.000000
				CHANNELS 3 Yrotation Xrotation Zrotation
				End Site
				{
					OFFSET 0.000000 -7.850000 17.850000
				}
			}
		}
	}
	JOINT LeftUpLeg
	{
		OFFSET 9.625000 -1.639000 0.000000
		CHANNELS 3 Yrotation Xrotation Zrotation
		JOINT LeftLeg
		{
			OFFSET 0.000000 -43.120000 0.000000
			CHANNELS 3 Yrotation Xrotation Zrotation
			JOINT LeftFoot
			{
				OFFSET 0.000000 -43.120000 0.000000
				CHANNELS 3 Yrotation Xrotation Zrotation
				End Site
				{
					OFFSET 0.000000 -7.850000 17.850000
				}
			}
		}
	}
	JOINT Spine
	{
		OFFSET 0.000000 16.395000 0.000000
		CHANNELS 3 Yrotation Xrotation Zrotation
		JOINT Spine1
		{
			OFFSET 0.000000 10.023000 0.000000
			CHANNELS 3 Yrotation Xrotation Zrotation
			JOINT Spine2
			{
				OFFSET 0.000000 10.437000 0.000000
				CHANNELS 3 Yrotation Xrotation Zrotation
				JOINT Spine3
				{
					OFFSET 0.000000 10.023000 0.000000
					CHANNELS 3 Yrotation Xrotation Zrotation
					JOINT Neck
					{
						OFFSET 0.000000 10.713000 0.000000
						CHANNELS 3 Yrotation Xrotation Zrotation
						JOINT Head
						{
							OFFSET 0.000000 9.720000 0.000000
							CHANNELS 3 Yrotation Xrotation Zrotation
							End Site
							{
								OFFSET 0.000000 16.450000 0.000000
							}
						}
					}
					JOINT RightShoulder
					{
						OFFSET -3.275000 7.142000 0.000000
						CHANNELS 3 Yrotation Xrotation Zrotation
						JOINT RightArm
						{
							OFFSET -13.100000 0.000000 0.000000
							CHANNELS 3 Yrotation Xrotation Zrotation
							JOINT RightForeArm
							{
								OFFSET -27.250000 0.000000 0.000000
								CHANNELS 3 Yrotation Xrotation Zrotation
								JOINT RightHand
								{
									OFFSET -26.750000 0.000000 0.000000
									CHANNELS 3 Yrotation Xrotation Zrotation
									End Site
									{
										OFFSET -3.479000 0.532000 0.778000
									}
								}
							}
						}
					}
					JOINT LeftShoulder
					{
						OFFSET 3.275000 7.142000 0.000000
						CHANNELS 3 Yrotation Xrotation Zrotation
						JOINT LeftArm
						{
							OFFSET 13.100000 0.000000 0.000000
							CHANNELS 3 Yrotation Xrotation Zrotation
							JOINT LeftForeArm
							{
								OFFSET 27.250000 0.000000 0.000000
								CHANNELS 3 Yrotation Xrotation Zrotation
								JOINT LeftHand
								{
									OFFSET 26.750000 0.000000 0.000000
									CHANNELS 3 Yrotation Xrotation Zrotation
									End Site
									{
										OFFSET 3.479000 0.532000 0.778000
									}
								}
							}
						}
					}
				}
			}
		}
	}
}
MOTION
Frames: 31
Frame Time: 0.041667
19.16 96.14 23.68 -66.25 -0.29 -7.3 22.37 -27.47 -4.25 0.0 28.56 0.0 2.97 -1.69 19.05 8.69 -12.54 3.24 -0.0 24.82 0.0 0.34 -13.98 -0.38 26.15 -0.51 -3.25 6.68 -0.02 -0.76 10.4 0.21 -1.21 -0.58 -0.11 0.57 -0.58 -0.1 0.57 -10.7 0.1 10.43 -19.02 -1.34 8.34 4.89 -2.74 69.31 -5.95 13.03 -3.09 -0.72 16.03 -4.48 -10.18 -8.14 -2.55 -31.67 2.54 -68.07 0.92 -0.72 -2.87 -13.06 49.6 18.75
19.24 96.14 23.65 -66.67 -0.32 -7.32 22.16 -27.05 -4.05 -0.0 28.56 -0.0 2.63 -2.46 18.28 8.88 -12.56 3.27 0.0 24.83 0.0 0.49 -14.01 -0.41 26.41 -0.54 -3.24 6.75 -0.03 -0.76 10.49 0.2 -1.21 -0.59 -0.1 0.57 -0.6 -0.1 0.57 -10.95 0.19 10.39 -19.59 -1.29 8.36 4.42 -2.23 69.41 -5.95 13.05 -3.11 -0.74 16.07 -4.4 -10.67 -8.14 -2.5 -31.55 2.44 -68.2 0.69 -0.97 -2.93 -12.98 49.75 18.89
19.32 96.14 23.62 -67.11 -0.36 -7.34 21.72 -26.39 -3.26 -0.0 28.13 0.0 -0.76 -3.28 15.15 9.07 -12.58 3.28 0.0 24.83 0.0 0.65 -14.03 -0.44 26.68 -0.57 -3.24 6.82 -0.04 -0.76 10.59 0.19 -1.2 -0.59 -0.1 0.57 -0.6 -0.1 0.57 -10.95 0.19 10.39 -20.17 -1.24 8.39 4.99 -2.19 69.39 -6.75 12.32 -2.96 -0.74 16.11 -4.29 -11.17 -8.13 -2.45 -31.44 2.35 -68.35 0.45 -1.1 -2.96 -12.86 49.81 19.12
19.4 96.15 23.59 -67.57 -0.38 -7.36 21.83 -26.0 -3.17 0.0 28.2 0.0 -1.28 -3.75 14.7 9.29 -12.59 3.29 0.0 24.82 0.0 0.83 -14.07 -0.48 26.96 -0.61 -3.24 6.89 -0.04 -0.75 10.69 0.18 -1.2 -0.59 -0.1 0.57 -0.6 -0.1 0.57 -10.95 0.19 10.39 -20.77 -1.19 8.42 5.59 -2.16 69.38 -7.6 11.64 -2.8 -0.73 16.18 -4.13 -11.68 -8.11 -2.4 -31.33 2.29 -68.49 0.19 -1.24 -2.98 -12.76 49.88 19.31
19.46 96.15 23.57 -68.05 -0.4 -7.38 21.64 -25.63 -3.01 0.0 28.29 0.0 -1.52 -4.16 14.18 9.58 -12.64 3.3 -0.0 24.86 0.0 1.01 -14.09 -0.52 27.26 -0.65 -3.25 6.97 -0.05 -0.75 10.79 0.17 -1.2 -0.61 -0.1 0.57 -0.61 -0.1 0.57 -11.22 0.27 10.36 -20.75 -1.19 8.43 4.56 -1.71 69.5 -7.69 11.58 -2.81 -0.82 16.46 -3.89 -12.18 -8.09 -2.36 -31.24 2.24 -68.65 -0.12 -1.35 -3.04 -12.57 49.93 19.56
19.53 96.14 23.54 -68.54 -0.42 -7.4 21.44 -25.28 -2.85 0.0 28.4 0.0 -1.75 -4.51 13.68 9.86 -12.69 3.32 0.0 24.9 -0.0 1.22 -14.12 -0.56 27.56 -0.69 -3.26 7.05 -0.06 -0.75 10.9 0.16 -1.19 -0.62 -0.1 0.57 -0.63 -0.09 0.57 -11.48 0.34 10.32 -20.74 -1.19 8.43 3.55 -1.26 69.63 -7.83 11.58 -2.84 -0.81 16.8 -3.67 -12.68 -8.07 -2.33 -31.18 2.22 -68.81 -0.38 -1.49 -3.08 -12.47 50.0 19.74
19.6 96.15 23.5 -69.06 -0.42 -7.42 20.57 -24.94 -2.59 -0.0 28.54 -0.0 -1.39 -4.85 13.12 10.12 -12.73 3.34 -0.0 24.88 -0.0 1.4 -14.15 -0.62 27.88 -0.75 -3.27 7.14 -0.07 -0.75 11.01 0.14 -1.19 -0.67 -0.1 0.56 -0.68 -0.09 0.56 -12.34 0.51 10.24 -21.28 -1.11 8.47 1.32 -0.05 70.1 -6.78 13.28 -3.44 -0.91 16.89 -3.46 -13.15 -8.05 -2.3 -31.19 2.23 -69.01 -0.63 -1.67 -3.09 -12.38 50.09 19.9
19.67 96.16 23.46 -69.6 -0.42 -7.44 20.33 -24.57 -2.45 -0.0 28.66 0.0 -1.67 -5.15 12.76 10.37 -12.77 3.37 0.0 24.87 0.0 1.58 -14.19 -0.68 28.21 -0.81 -3.29 7.23 -0.08 -0.75 11.13 0.13 -1.19 -0.69 -0.1 0.56 -0.69 -0.09 0.56 -12.63 0.55 10.21 -21.87 -1.03 8.51 1.05 0.3 70.27 -7.14 13.56 -3.57 -1.0 16.99 -3.21 -13.66 -8.02 -2.27 -31.16 2.26 -69.18 -0.89 -1.78 -3.13 -12.29 50.18 20.05
19.71 96.19 23.33 -70.16 -0.43 -7.45 20.09 -24.17 -2.32 -0.0 28.78 -0.0 -1.96 -5.4 12.43 10.4 -12.73 3.43 0.0 24.74 -0.0 1.63 -14.24 -0.8 28.55 -0.86 -3.31 7.32 -0.09 -0.75 11.25 0.12 -1.19 -0.7 -0.1 0.56 -0.71 -0.09 0.56 -12.94 0.59 10.2 -23.68 -0.72 8.54 2.04 0.58 70.46 -7.54 13.91 -3.72 -1.13 17.08 -2.92 -13.64 -8.02 -2.27 -31.68 2.32 -69.44 -1.14 -1.88 -3.18 -12.2 50.27 20.19
19.79 96.21 23.27 -70.73 -0.44 -7.46 19.81 -23.78 -2.19 -0.0 28.91 -0.0 -2.23 -5.6 12.09 10.62 -12.76 3.45 0.0 24.72 0.0 1.82 -14.28 -0.86 28.9 -0.92 -3.33 7.41 -0.11 -0.75 11.37 0.1 -1.19 -0.72 -0.1 0.56 -0.73 -0.1 0.56 -13.26 0.61 10.17 -24.29 -0.62 8.54 1.84 0.85 70.68 -7.99 14.3 -3.9 -1.26 17.16 -2.58 -13.62 -8.02 -2.27 -32.22 2.41 -69.7 -1.39 -1.95 -3.22 -12.09 50.37 20.33
19.86 96.22 23.21 -71.32 -0.44 -7.47 19.94 -23.39 -2.15 0.0 29.02 0.0 -2.88 -5.74 11.85 10.84 -12.8 3.47 0.0 24.7 -0.0 2.03 -14.3 -0.92 29.27 -0.98 -3.35 7.51 -0.12 -0.75 11.5 0.09 -1.19 -0.74 -0.1 0.56 -0.74 -0.1 0.56 -13.59 0.64 10.16 -24.89 -0.51 8.55 1.64 1.1 70.89 -8.47 14.78 -4.12 -1.39 17.26 -2.14 -14.2 -7.98 -2.24 -32.17 2.49 -69.89 -1.63 -1.98 -3.28 -11.99 50.46 20.46
19.95 96.22 23.15 -71.94 -0.44 -7.47 20.09 -22.99 -2.12 0.0 29.06 0.0 -3.55 -5.8 11.65 11.08 -12.85 3.48 -0.0 24.7 -0.0 2.23 -14.34 -0.99 29.64 -1.04 -3.38 7.61 -0.13 -0.75 11.63 0.08 -1.19 -0.76 -0.11 0.56 -0.76 -0.1 0.56 -13.94 0.65 10.13 -25.51 -0.41 8.55 1.47 1.33 71.1 -8.97 15.31 -4.37 -1.51 17.38 -1.6 -14.75 -7.94 -2.22 -32.18 2.59 -70.09 -1.85 -1.99 -3.34 -11.88 50.56 20.59
20.03 96.22 23.1 -72.58 -0.44 -7.46 19.85 -22.61 -2.05 0.0 29.13 0.0 -3.88 -5.87 11.36 11.33 -12.9 3.47 -0.0 24.7 -0.0 2.44 -14.36 -1.05 30.03 -1.1 -3.42 7.72 -0.14 -0.76 11.76 0.06 -1.2 -0.78 -0.11 0.55 -0.78 -0.1 0.56 -14.29 0.66 10.1 -26.13 -0.3 8.56 1.34 1.51 71.31 -9.5 15.85 -4.63 -1.63 17.55 -0.97 -16.51 -7.75 -2.18 -30.93 2.6 -70.06 -2.07 -1.92 -3.43 -11.76 50.67 20.71
20.14 96.22 23.04 -73.23 -0.44 -7.45 19.58 -22.22 -1.97 0.0 29.21 0.0 -4.2 -5.95 11.07 11.57 -12.98 3.46 -0.0 24.71 -0.0 2.63 -14.39 -1.12 30.44 -1.17 -3.46 7.83 -0.15 -0.76 11.9 0.05 -1.21 -0.8 -0.11 0.55 -0.8 -0.1 0.55 -14.64 0.68 10.06 -26.77 -0.18 8.57 1.23 1.68 71.51 -10.03 16.45 -4.89 -1.77 17.73 -0.28 -17.12 -7.67 -2.16 -30.82 2.69 -70.21 -2.27 -1.82 -3.53 -11.63 50.76 20.83
20.25 96.22 23.0 -73.91 -0.43 -7.43 18.27 -21.88 -1.75 0.0 29.46 0.0 -3.56 -6.17 10.51 12.13 -13.08 3.43 0.0 24.73 0.0 2.48 -14.41 -1.13 30.85 -1.24 -3.51 7.94 -0.17 -0.77 12.04 0.04 -1.21 -0.82 -0.11 0.55 -0.82 -0.11 0.55 -15.01 0.69 10.01 -27.48 -0.03 8.58 1.24 1.79 71.73 -10.57 17.02 -5.15 -1.99 17.96 0.61 -17.76 -7.57 -2.14 -30.72 2.77 -70.37 -2.43 -1.71 -3.64 -11.51 50.86 20.95
20.36 96.22 22.94 -74.61 -0.41 -7.41 17.92 -21.52 -1.67 0.0 29.74 0.0 -3.84 -6.34 10.23 12.64 -13.18 3.39 0.0 24.75 0.0 2.27 -14.43 -1.14 31.29 -1.31 -3.57 8.06 -0.18 -0.77 12.18 0.03 -1.22 -0.83 -0.12 0.55 -0.84 -0.11 0.55 -15.38 0.69 9.95 -28.13 0.11 8.59 1.18 1.91 71.91 -11.07 17.62 -5.39 -2.14 18.15 1.4 -18.42 -7.46 -2.12 -30.6 2.85 -70.52 -2.58 -1.58 -3.75 -11.36 50.96 21.08
20.49 96.21 22.88 -75.33 -0.39 -7.39 17.57 -21.17 -1.61 -0.0 30.03 -0.0 -4.13 -6.48 10.0 12.83 -13.28 3.36 0.0 24.79 0.0 2.31 -14.45 -1.22 31.73 -1.38 -3.62 8.18 -0.19 -0.78 12.33 0.01 -1.23 -0.85 -0.12 0.54 -0.86 -0.11 0.54 -15.75 0.7 9.91 -28.79 0.25 8.6 1.16 1.99 72.09 -11.55 18.2 -5.61 -2.3 18.35 2.23 -19.1 -7.33 -2.11 -30.49 2.94 -70.68 -2.7 -1.44 -3.88 -11.22 51.05 21.19
20.62 96.21 22.83 -76.09 -0.38 -7.36 17.22 -20.84 -1.56 -0.0 30.35 0.0 -4.43 -6.59 9.78 13.06 -13.35 3.31 -0.0 24.79 0.0 2.37 -14.48 -1.29 32.2 -1.46 -3.68 8.3 -0.2 -0.78 12.48 0.0 -1.24 -0.87 -0.12 0.54 -0.88 -0.11 0.54 -16.12 0.71 9.84 -29.46 0.4 8.61 1.17 2.06 72.24 -11.97 18.78 -5.81 -2.46 18.54 3.08 -19.79 -7.21 -2.09 -30.39 3.03 -70.85 -2.78 -1.29 -4.0 -11.07 51.15 21.31
20.76 96.21 22.79 -76.85 -0.36 -7.33 17.44 -20.48 -1.59 0.0 30.58 -0.0 -5.26 -6.59 9.71 13.61 -13.46 3.25 0.0 24.8 0.0 2.1 -14.5 -1.27 23.44 -1.58 -2.59 5.96 -0.29 -0.56 9.41 -0.28 -0.92 -0.17 -0.01 0.47 -0.17 -0.01 0.47 -3.04 0.28 8.54 -15.93 -0.18 7.43 1.18 2.11 72.36 -12.32 19.38 -6.01 -2.6 18.73 3.97 -5.4 -7.72 -3.41 -31.03 3.23 -71.16 -2.83 -1.13 -4.13 -10.86 51.16 21.5
20.9 96.21 22.75 -77.65 -0.35 -7.3 17.7 -20.12 -1.64 -0.0 30.76 -0.0 -6.1 -6.51 9.64 14.21 -13.54 3.19 -0.0 24.78 0.0 1.85 -14.51 -1.24 23.45 -1.62 -2.57 5.96 -0.3 -0.56 9.41 -0.29 -0.91 -0.15 -0.01 0.47 -0.15 -0.01 0.47 -2.73 0.21 8.41 -15.88 -0.12 7.38 1.21 2.15 72.47 -12.6 19.98 -6.2 -2.7 18.93 4.9 -4.64 -7.78 -3.49 -31.71 3.43 -71.48 -2.85 -0.97 -4.27 -10.69 51.25 21.62
21.06 96.2 22.82 -77.65 -0.35 -7.3 17.14 -19.64 -1.59 -0.0 31.0 0.0 -7.1 -6.41 9.54 13.26 -13.59 3.11 -0.0 24.82 -0.0 2.84 -14.45 -1.35 23.03 -1.58 -2.51 5.85 -0.29 -0.54 9.26 -0.29 -0.89 -0.14 -0.01 0.46 -0.14 -0.01 0.46 -2.49 0.15 8.3 -15.2 -0.19 7.31 0.56 2.24 72.59 -12.86 20.61 -6.36 -2.73 19.12 5.82 -4.68 -7.73 -3.55 -31.7 3.55 -71.67 -2.84 -0.8 -4.4 -10.52 51.33 21.73
21.22 96.18 22.9 -77.65 -0.35 -7.3 16.59 -19.1 -1.59 -0.0 31.08 -0.0 -7.94 -6.27 9.5 12.95 -13.66 3.02 -0.0 24.86 -0.0 3.17 -14.4 -1.32 22.54 -1.55 -2.43 5.72 -0.29 -0.53 9.08 -0.29 -0.87 -0.12 -0.01 0.45 -0.12 -0.01 0.45 -2.17 0.09 8.17 -14.43 -0.27 7.23 -0.07 2.32 72.69 -13.0 21.25 -6.52 -2.71 19.31 6.77 -4.63 -7.68 -3.61 -31.72 3.68 -71.87 -2.79 -0.64 -4.53 -10.33 51.41 21.84
21.33 96.18 22.86 -78.47 -0.34 -7.27 16.24 -18.76 -1.63 0.0 31.18 0.0 -8.14 -6.06 9.31 12.34 -13.67 2.99 0.0 24.84 0.0 4.2 -14.41 -1.56 23.04 -1.63 -2.48 5.85 -0.3 -0.53 9.26 -0.31 -0.88 -0.14 -0.02 0.45 -0.14 -0.02 0.45 -2.56 0.08 8.14 -15.12 -0.11 7.25 0.04 2.34 72.75 -13.06 21.91 -6.63 -2.62 19.52 7.82 -6.95 -7.33 -3.52 -30.28 3.62 -71.81 -2.72 -0.55 -4.63 -10.13 51.49 21.96
21.45 96.18 22.82 -79.29 -0.33 -7.25 15.94 -18.43 -1.67 -0.0 31.3 -0.0 -8.37 -5.88 9.15 12.54 -13.71 2.96 0.0 24.82 0.0 4.43 -14.43 -1.63 23.54 -1.7 -2.52 5.98 -0.32 -0.54 9.45 -0.32 -0.89 -0.16 -0.02 0.45 -0.16 -0.02 0.45 -2.96 0.07 8.11 -15.81 0.06 7.28 0.19 2.33 72.8 -13.07 22.56 -6.71 -2.45 19.65 8.68 -7.76 -7.19 -3.49 -30.34 3.76 -72.02 -2.6 -0.44 -4.74 -9.94 51.56 22.07
21.48 96.2 22.59 -79.29 -0.33 -7.25 12.49 -18.03 -1.45 -0.0 31.74 -0.0 -6.37 -6.13 8.32 11.4 -13.68 3.08 -0.0 24.78 -0.0 4.38 -14.38 -1.72 22.03 -1.57 -2.28 5.59 -0.3 -0.49 8.88 -0.32 -0.82 -0.06 -0.02 0.43 -0.06 -0.02 0.43 -1.19 -0.14 7.78 -15.63 0.35 7.11 1.89 2.09 72.75 -13.02 23.15 -6.78 -2.24 19.75 9.47 -5.35 -7.42 -3.8 -31.26 4.01 -72.4 -2.46 -0.3 -4.87 -9.71 51.62 22.19
21.57 96.2 22.55 -79.29 -0.33 -7.25 11.28 -17.57 -1.36 -0.0 32.13 -0.0 -6.53 -6.26 8.1 10.78 -13.71 3.09 -0.0 24.78 -0.0 4.67 -14.32 -1.77 21.51 -1.52 -2.2 5.45 -0.29 -0.48 8.68 -0.31 -0.79 -0.04 -0.02 0.42 -0.04 -0.02 0.42 -0.83 -0.22 7.65 -15.59 0.44 7.05 2.13 1.99 72.77 -12.92 23.73 -6.84 -2.0 19.8 10.17 -4.51 -7.5 -3.91 -32.21 4.27 -72.77 -2.3 -0.15 -4.99 -9.49 51.68 22.31
21.69 96.2 22.51 -81.87 -0.34 -7.16 12.68 -17.71 -1.5 -0.0 32.53 0.0 -6.62 -6.11 7.95 12.8 -13.77 3.0 0.0 24.76 0.0 4.92 -14.5 -1.89 23.07 -1.74 -2.33 5.86 -0.33 -0.49 9.27 -0.36 -0.82 -0.07 -0.02 0.42 -0.07 -0.02 0.42 -1.25 -0.22 7.64 -16.36 0.63 7.1 2.4 1.88 72.78 -12.78 24.22 -6.89 -1.74 19.8 10.76 -4.48 -7.5 -3.9 -33.18 4.53 -73.16 -2.1 0.16 -5.15 -9.23 51.75 22.44
21.8 96.19 22.47 -82.75 -0.35 -7.12 12.39 -17.43 -1.51 0.0 32.92 0.0 -6.73 -6.18 7.82 13.08 -13.82 2.97 -0.0 24.79 -0.0 5.19 -14.54 -1.97 23.61 -1.81 -2.38 6.0 -0.34 -0.5 9.47 -0.37 -0.82 -0.09 -0.02 0.42 -0.09 -0.02 0.42 -1.68 -0.21 7.62 -17.16 0.8 7.14 2.72 1.77 72.79 -12.6 24.61 -6.93 -1.51 19.76 11.22 -4.46 -7.49 -3.9 -34.17 4.78 -73.55 -1.9 0.36 -5.26 -8.99 51.82 22.55
21.95 96.18 22.41 -85.47 -0.38 -6.96 13.96 -17.55 -1.73 0.0 33.34 -0.0 -6.77 -6.05 7.73 15.26 -13.84 2.83 -0.0 24.76 -0.0 5.43 -14.71 -2.12 25.27 -2.01 -2.54 6.44 -0.37 -0.52 10.08 -0.39 -0.86 -0.11 -0.03 0.42 -0.12 -0.03 0.42 -2.12 -0.19 7.62 -17.97 0.96 7.18 3.06 1.65 72.81 -12.36 24.89 -6.97 -1.33 19.69 11.55 -5.29 -7.36 -3.87 -34.34 4.93 -73.78 -1.69 0.58 -5.37 -8.72 51.87 22.67
22.09 96.17 22.35 -86.38 -0.4 -6.91 13.71 -17.28 -1.77 -0.0 33.71 -0.0 -6.83 -6.11 7.64 15.57 -13.91 2.79 0.0 24.8 0.0 5.69 -14.74 -2.2 25.83 -2.07 -2.6 6.59 -0.38 -0.53 10.28 -0.4 -0.87 -0.14 -0.03 0.42 -0.14 -0.03 0.42 -2.56 -0.16 7.61 -18.81 1.11 7.22 3.44 1.53 72.84 -12.07 25.07 -7.01 -1.18 19.6 11.74 -6.13 -7.21 -3.84 -34.52 5.07 -74.0 -1.46 0.83 -5.47 -8.46 51.93 22.78
22.23 96.17 22.28 -87.31 -0.41 -6.85 13.47 -17.01 -1.83 -0.0 34.07 -0.0 -6.88 -6.16 7.6 15.89 -13.97 2.76 -0.0 24.81 0.0 5.94 -14.77 -2.29 26.4 -2.14 -2.66 6.74 -0.39 -0.53 10.48 -0.4 -0.88 -0.16 -0.03 0.42 -0.17 -0.03 0.42 -3.03 -0.12 7.61 -19.64 1.24 7.27 3.82 1.4 72.85 -11.68 25.09 -7.0 -1.13 19.57 11.8 -10.96 -6.35 -3.67 -30.75 4.56 -73.43 -1.23 1.1 -5.57 -8.0 50.67 23.77
